<?xml version="1.0" encoding="UTF-8" standalone="no"?>
<!DOCTYPE svg PUBLIC "-//W3C//DTD SVG 1.1//EN"
 "http://www.w3.org/Graphics/SVG/1.1/DTD/svg11.dtd">
<!-- Generated by graphviz version 2.48.0 (20210717.1556)
 -->
<!-- Title: structs Pages: 1 -->
<svg width="264pt" height="151pt"
 viewBox="0.00 0.00 264.00 151.00" xmlns="http://www.w3.org/2000/svg" xmlns:xlink="http://www.w3.org/1999/xlink">
<g id="graph0" class="graph" transform="scale(1 1) rotate(0) translate(4 147)">
<title>structs</title>
<polygon fill="white" stroke="transparent" points="-4,4 -4,-147 260,-147 260,4 -4,4"/>
<!-- struct1 -->
<g id="node1" class="node">
<title>struct1</title>
<polygon fill="none" stroke="black" points="36.5,-106.5 36.5,-142.5 173.5,-142.5 173.5,-106.5 36.5,-106.5"/>
<text text-anchor="middle" x="54" y="-120.8" font-family="Times,serif" font-size="14.00">left</text>
<polyline fill="none" stroke="black" points="71.5,-106.5 71.5,-142.5 "/>
<text text-anchor="middle" x="101" y="-120.8" font-family="Times,serif" font-size="14.00">mid dle</text>
<polyline fill="none" stroke="black" points="130.5,-106.5 130.5,-142.5 "/>
<text text-anchor="middle" x="152" y="-120.8" font-family="Times,serif" font-size="14.00">right</text>
</g>
<!-- struct2 -->
<g id="node2" class="node">
<title>struct2</title>
<polygon fill="none" stroke="black" points="0,-17 0,-53 74,-53 74,-17 0,-17"/>
<text text-anchor="middle" x="18.5" y="-31.3" font-family="Times,serif" font-size="14.00">one</text>
<polyline fill="none" stroke="black" points="37,-17 37,-53 "/>
<text text-anchor="middle" x="55.5" y="-31.3" font-family="Times,serif" font-size="14.00">two</text>
</g>
<!-- struct1&#45;&gt;struct2 -->
<g id="edge1" class="edge">
<title>struct1&#45;&gt;struct2</title>
<path fill="none" stroke="black" d="M91.57,-106.21C81.6,-93.39 67.86,-75.71 56.66,-61.3"/>
<polygon fill="black" stroke="black" points="59.31,-59 50.41,-53.25 53.78,-63.29 59.31,-59"/>
</g>
<!-- struct3 -->
<g id="node3" class="node">
<title>struct3</title>
<polygon fill="none" stroke="black" points="92,-0.5 92,-69.5 256,-69.5 256,-0.5 92,-0.5"/>
<text text-anchor="middle" x="116.5" y="-38.8" font-family="Times,serif" font-size="14.00">hello</text>
<text text-anchor="middle" x="116.5" y="-23.8" font-family="Times,serif" font-size="14.00">world</text>
<polyline fill="none" stroke="black" points="141,-0.5 141,-69.5 "/>
<text text-anchor="middle" x="175.5" y="-54.3" font-family="Times,serif" font-size="14.00">b</text>
<polyline fill="none" stroke="black" points="141,-46.5 210,-46.5 "/>
<text text-anchor="middle" x="152.5" y="-31.3" font-family="Times,serif" font-size="14.00">c</text>
<polyline fill="none" stroke="black" points="164,-23.5 164,-46.5 "/>
<text text-anchor="middle" x="175.5" y="-31.3" font-family="Times,serif" font-size="14.00">d</text>
<polyline fill="none" stroke="black" points="187,-23.5 187,-46.5 "/>
<text text-anchor="middle" x="198.5" y="-31.3" font-family="Times,serif" font-size="14.00">e</text>
<polyline fill="none" stroke="black" points="141,-23.5 210,-23.5 "/>
<text text-anchor="middle" x="175.5" y="-8.3" font-family="Times,serif" font-size="14.00">f</text>
<polyline fill="none" stroke="black" points="210,-0.5 210,-69.5 "/>
<text text-anchor="middle" x="221.5" y="-31.3" font-family="Times,serif" font-size="14.00">g</text>
<polyline fill="none" stroke="black" points="233,-0.5 233,-69.5 "/>
<text text-anchor="middle" x="244.5" y="-31.3" font-family="Times,serif" font-size="14.00">h</text>
</g>
<!-- struct1&#45;&gt;struct3 -->
<g id="edge2" class="edge">
<title>struct1&#45;&gt;struct3</title>
<path fill="none" stroke="black" d="M118.63,-106.21C125.14,-97.96 133.23,-87.69 141.21,-77.58"/>
<polygon fill="black" stroke="black" points="144.1,-79.57 147.54,-69.55 138.6,-75.24 144.1,-79.57"/>
</g>
</g>
</svg>
